<svg data-v-fde0c5aa="" xmlns="http://www.w3.org/2000/svg" viewBox="0 0 300 300" class="iconLeft"><!----><defs data-v-fde0c5aa=""><!----></defs><rect data-v-fde0c5aa="" fill="#2f2e2e" x="0" y="0" width="300px" height="300px" class="logo-background-square"></rect><defs data-v-fde0c5aa=""><!----></defs><g data-v-fde0c5aa="" id="a936b017-ef3d-4c59-8e3c-d97e76d6731c" fill="#ffffff" transform="matrix(3.478991485115132,0,0,3.478991485115132,120.38806746795582,127.35176463562253)"><path d="M7.09 2.38L0.16 2.38L0.16 3.50L3.06 3.50L3.06 12.88L4.18 12.88L4.18 3.50L7.09 3.50ZM11.94 5.74C10.94 5.74 10.13 6.18 9.61 6.88L9.61 5.88L8.52 5.88L8.52 12.88L9.61 12.88L9.61 9.08C9.61 7.81 10.66 6.83 11.94 6.83C12.15 6.83 12.32 6.84 12.48 6.90L12.48 5.79C12.32 5.76 12.15 5.74 11.94 5.74ZM21.35 11.97C20.97 11.97 20.63 11.71 20.63 11.06L20.63 5.88L19.55 5.88L19.55 6.79C18.90 6.14 17.99 5.74 16.99 5.74C14.98 5.74 13.35 7.37 13.35 9.38C13.35 11.39 14.98 13.02 16.99 13.02C18.04 13.02 18.99 12.53 19.65 11.81C19.88 12.53 20.44 13.02 21.26 13.02C21.46 13.02 21.65 12.97 21.79 12.88L21.79 11.97ZM16.99 11.94C15.58 11.94 14.44 10.80 14.44 9.38C14.44 7.96 15.58 6.83 16.99 6.83C18.39 6.83 19.55 7.96 19.55 9.38C19.55 10.80 18.39 11.94 16.99 11.94ZM27.65 5.88L25.50 11.62L23.33 5.88L22.16 5.88L24.96 12.88L26.01 12.88L28.82 5.88ZM37.05 9.31C37.00 7.30 35.40 5.74 33.41 5.74C31.40 5.74 29.77 7.37 29.77 9.38C29.77 11.39 31.40 13.02 33.41 13.02C35.07 13.02 36.45 11.92 36.91 10.41L35.75 10.41C35.37 11.32 34.46 11.94 33.41 11.94C32.03 11.94 30.92 10.89 30.85 9.54L37.03 9.54ZM33.41 6.83C34.53 6.83 35.47 7.54 35.81 8.56L30.99 8.56C31.34 7.54 32.29 6.83 33.41 6.83ZM39.04 12.88L40.13 12.88L40.13 0L39.04 0Z"></path></g><defs data-v-fde0c5aa=""><!----></defs><g data-v-fde0c5aa="" id="d88fbf62-2fa7-493d-85c2-9787c564cd43" stroke="none" fill="#9C0202" transform="matrix(2.1232720654103874,0,0,2.1232720654103874,40,116.0276469534338)"><path d="M9.382 8.675h13.943v13.943L32 31.293V0H.707zM22.618 23.325H8.675V9.382L0 .707V32h31.293z"></path></g><!----></svg>